<svg width="20" height="20" viewBox="0 0 20 20" fill="none" xmlns="http://www.w3.org/2000/svg">
<path d="M17.1875 0.75H2.0625C1.51549 0.75 0.990886 0.967299 0.604092 1.35409C0.217298 1.74089 0 2.26549 0 2.8125L0 17.9375C0 18.4845 0.217298 19.0091 0.604092 19.3959C0.990886 19.7827 1.51549 20 2.0625 20H7.95996V13.4554H5.25293V10.375H7.95996V8.02719C7.95996 5.35668 9.54981 3.88156 11.9848 3.88156C13.151 3.88156 14.3705 4.08953 14.3705 4.08953V6.71063H13.0268C11.703 6.71063 11.29 7.53219 11.29 8.3748V10.375H14.2454L13.7728 13.4554H11.29V20H17.1875C17.7345 20 18.2591 19.7827 18.6459 19.3959C19.0327 19.0091 19.25 18.4845 19.25 17.9375V2.8125C19.25 2.26549 19.0327 1.74089 18.6459 1.35409C18.2591 0.967299 17.7345 0.75 17.1875 0.75Z" fill="#414141"/>
</svg>
