<svg width="21" height="20" viewBox="0 0 21 20" fill="none" xmlns="http://www.w3.org/2000/svg">
<path d="M18.75 0.75H2.2457C1.48945 0.75 0.875 1.37305 0.875 2.13789V18.6121C0.875 19.377 1.48945 20 2.2457 20H18.75C19.5063 20 20.125 19.377 20.125 18.6121V2.13789C20.125 1.37305 19.5063 0.75 18.75 0.75ZM6.69297 17.25H3.83984V8.06328H6.69727V17.25H6.69297ZM5.26641 6.80859C4.35117 6.80859 3.61211 6.06523 3.61211 5.1543C3.61211 4.24336 4.35117 3.5 5.26641 3.5C6.17734 3.5 6.9207 4.24336 6.9207 5.1543C6.9207 6.06953 6.18164 6.80859 5.26641 6.80859ZM17.3879 17.25H14.5348V12.7812C14.5348 11.7156 14.5133 10.3449 13.0523 10.3449C11.5656 10.3449 11.3379 11.5051 11.3379 12.7039V17.25H8.48477V8.06328H11.2219V9.31797H11.2605C11.643 8.59609 12.5754 7.83555 13.9633 7.83555C16.8508 7.83555 17.3879 9.73906 17.3879 12.2141V17.25Z" fill="#414141"/>
</svg>
