<svg width="20" height="20" viewBox="0 0 20 20" fill="none" xmlns="http://www.w3.org/2000/svg">
<path d="M17.625 0.75H2.5C1.36133 0.75 0.4375 1.67383 0.4375 2.8125V17.9375C0.4375 19.0762 1.36133 20 2.5 20H17.625C18.7637 20 19.6875 19.0762 19.6875 17.9375V2.8125C19.6875 1.67383 18.7637 0.75 17.625 0.75ZM15.5238 7.57344C15.5324 7.69375 15.5324 7.81836 15.5324 7.93867C15.5324 11.6641 12.6965 15.9566 7.51445 15.9566C5.91602 15.9566 4.43359 15.4926 3.1875 14.6934C3.41523 14.7191 3.63438 14.7277 3.86641 14.7277C5.18555 14.7277 6.39727 14.2809 7.36406 13.5246C6.12656 13.4988 5.08672 12.6867 4.73008 11.5695C5.16406 11.634 5.55508 11.634 6.00195 11.518C4.71289 11.2559 3.74609 10.1215 3.74609 8.75078V8.71641C4.11992 8.92695 4.5582 9.05586 5.01797 9.07305C4.63143 8.81594 4.31456 8.46713 4.09563 8.05776C3.8767 7.64839 3.76252 7.19119 3.76328 6.72695C3.76328 6.20273 3.90078 5.72148 4.1457 5.30469C5.53359 7.01484 7.61758 8.13203 9.95508 8.25234C9.55547 6.34023 10.9863 4.78906 12.7051 4.78906C13.5172 4.78906 14.2477 5.12852 14.7633 5.67852C15.3992 5.5582 16.0094 5.32187 16.5508 4.99961C16.3402 5.65273 15.8977 6.20273 15.3133 6.55078C15.8805 6.49062 16.4305 6.33164 16.9375 6.1125C16.5551 6.67539 16.0738 7.17383 15.5238 7.57344Z" fill="#414141"/>
</svg>
